<svg xmlns="http://www.w3.org/2000/svg" viewBox="0 0 792 612"><defs><style>.a{fill:#0086ff;}.a,.b{fill-rule:evenodd;}.c{font-size:96.99px;font-family:Tahoma-Bold, Tahoma;font-weight:700;}</style></defs><title>bamazon_logo</title><path class="a" d="M428,333.22c-26,13.73-63.8,21-96.31,21-45.57,0-86.6-12-117.65-32.06-2.44-1.57-.26-3.72,2.67-2.5C250.22,333.61,291.65,342,334.44,342a316.89,316.89,0,0,0,89.79-13.13C428.63,327.54,432.33,330.94,428,333.22Z"/><path class="a" d="M445,316.75c1.89,1,10.14-2.15,13.84-3.54,1.12-.42,1.5.25.61,1.06-5.79,5.28-17.1,7.41-18.71,6.64s-2.21-9.15,3-14.7c.81-.85,1.82-.8,1.6.08C444.65,309.22,443.06,315.79,445,316.75Z"/><path class="a" d="M434.79,323.84c-1.56-1.43-10.34-.68-14.28-.34-1.19.1-1.38-.64-.3-1.18,7-3.51,18.47-2.5,19.8-1.32s-.35,9.4-6.91,13.32c-1,.6-2,.28-1.52-.51C433,331.17,436.35,325.27,434.79,323.84Z"/><path class="a" d="M448.61,328.16c.09,2.12,6.82,7.8,9.85,10.35.92.77.52,1.43-.62,1.05-7.43-2.47-14.82-11.31-14.93-13.08s6.9-6.39,14.31-4.52c1.14.29,1.59,1.2.71,1.44C455,324.22,448.52,326,448.61,328.16Z"/><path class="a" d="M431.46,312.75c.48-2.06-4.46-9.35-6.68-12.63-.67-1-.11-1.52.88-.84,6.48,4.39,11.2,14.9,10.83,16.64s-8.38,4.28-15,.47c-1-.59-1.21-1.58-.29-1.58C424.22,314.81,431,314.82,431.46,312.75Z"/><path class="b" d="M421,268.29V261a1.8,1.8,0,0,1,1.84-1.84H455.4a1.81,1.81,0,0,1,1.88,1.83v6.23c0,1-.89,2.41-2.45,4.58L438,295.92c6.26-.15,12.89.79,18.58,4a3.32,3.32,0,0,1,1.73,2.84v7.76c0,1.07-1.17,2.3-2.4,1.66a37.52,37.52,0,0,0-34.42.07c-1.13.6-2.32-.62-2.32-1.69v-7.37a8.77,8.77,0,0,1,1.21-5l19.55-28h-17A1.81,1.81,0,0,1,421,268.29Z"/><path class="b" d="M302.16,313.69h-9.91a1.87,1.87,0,0,1-1.77-1.68V261.15a1.87,1.87,0,0,1,1.91-1.83h9.23a1.86,1.86,0,0,1,1.8,1.71v6.64h.19c2.4-6.42,6.94-9.42,13-9.42s10.08,3,12.86,9.42a14.64,14.64,0,0,1,25.16-3.85c3.14,4.28,2.5,10.49,2.5,15.95v32.1a1.87,1.87,0,0,1-1.91,1.83h-9.9a1.86,1.86,0,0,1-1.78-1.83v-27c0-2.14.19-7.49-.28-9.52-.74-3.43-3-4.39-5.83-4.39a6.57,6.57,0,0,0-5.92,4.17c-1,2.57-.92,6.85-.92,9.74v27a1.87,1.87,0,0,1-1.91,1.83h-9.9a1.86,1.86,0,0,1-1.78-1.83v-27c0-5.67.92-14-6.1-14s-6.85,8.13-6.85,14v27A1.87,1.87,0,0,1,302.16,313.69Z"/><path class="b" d="M485.32,258.25c14.71,0,22.66,12.63,22.66,28.69,0,15.52-8.79,27.83-22.66,27.83-14.43,0-22.29-12.63-22.29-28.36S471,258.25,485.32,258.25Zm.09,10.38c-7.31,0-7.77,10-7.77,16.16s-.09,19.48,7.68,19.48,8-10.7,8-17.23c0-4.28-.18-9.42-1.48-13.49C490.78,270,488.56,268.63,485.41,268.63Z"/><path class="b" d="M527.06,313.69h-9.87a1.86,1.86,0,0,1-1.78-1.83l0-50.88a1.88,1.88,0,0,1,1.9-1.66h9.19a1.88,1.88,0,0,1,1.76,1.42v7.78h.19c2.78-7,6.66-10.28,13.5-10.28,4.44,0,8.79,1.6,11.56,6,2.59,4.07,2.59,10.92,2.59,15.84v32a1.88,1.88,0,0,1-1.9,1.6h-9.93a1.87,1.87,0,0,1-1.76-1.6V284.47c0-5.57.65-13.7-6.2-13.7a6.49,6.49,0,0,0-5.74,4.07c-1.39,3.11-1.57,6.21-1.57,9.64v27.39A1.9,1.9,0,0,1,527.06,313.69Z"/><path class="b" d="M395,289.4c0,3.86.09,7.08-1.86,10.51-1.58,2.79-4.08,4.5-6.86,4.5-3.8,0-6-2.9-6-7.19,0-8.44,7.57-10,14.74-10Zm10,24.16a2,2,0,0,1-2.34.23c-3.29-2.74-3.88-4-5.68-6.6-5.44,5.54-9.29,7.2-16.34,7.2-8.34,0-14.83-5.15-14.83-15.45a16.83,16.83,0,0,1,10.57-16.2c5.38-2.36,12.89-2.79,18.64-3.43V278c0-2.36.18-5.15-1.21-7.19a6.62,6.62,0,0,0-5.56-2.58c-3.78,0-7.14,1.94-8,6a2.1,2.1,0,0,1-1.72,1.82L369,275a1.75,1.75,0,0,1-1.48-2.07c2.21-11.65,12.73-15.17,22.16-15.17,4.82,0,11.13,1.29,14.93,4.93,4.82,4.5,4.36,10.51,4.36,17.06v15.44c0,4.65,1.93,6.68,3.74,9.18.63.9.78,2,0,2.63-2,1.7-5.62,4.82-7.6,6.58Z"/><path class="b" d="M265.1,289.4c0,3.86.09,7.08-1.85,10.51-1.57,2.79-4.08,4.5-6.86,4.5-3.8,0-6-2.9-6-7.19,0-8.44,7.57-10,14.74-10Zm10,24.16a2,2,0,0,1-2.34.23c-3.29-2.74-3.88-4-5.68-6.6-5.44,5.54-9.29,7.2-16.34,7.2-8.34,0-14.83-5.15-14.83-15.45a16.83,16.83,0,0,1,10.57-16.2c5.38-2.36,12.89-2.79,18.63-3.43V278c0-2.36.19-5.15-1.2-7.19a6.62,6.62,0,0,0-5.56-2.58c-3.78,0-7.14,1.94-8,6a2.1,2.1,0,0,1-1.72,1.82l-9.6-1a1.75,1.75,0,0,1-1.48-2.07c2.21-11.65,12.73-15.17,22.16-15.17,4.82,0,11.12,1.29,14.93,4.93,4.82,4.5,4.36,10.51,4.36,17.06v15.44c0,4.65,1.93,6.68,3.74,9.18.63.9.78,2,0,2.63-2,1.7-5.62,4.82-7.6,6.58Z"/><text class="c" transform="translate(174 312.76) scale(0.93 1)">b</text></svg>